name rise34.3697peak60.0498fall86.3158.mot
datacolumns 19
datarows 27
range 11.53662500000000 11.57996500000000
endheader
time	ground_force1_vx	ground_force1_vy	ground_force1_vz	ground_force1_px	ground_force1_py	ground_force1_pz	ground_force2_vx	ground_force2_vy	ground_force2_vz	ground_force2_px	ground_force2_py	ground_force2_pz	ground_torque1_x	ground_torque1_y	ground_torque1_z	ground_torque2_x	ground_torque2_y	ground_torque2_z	
11.53662500000000	-2.50546100000000	687.99928199999999	46.35921100000000	0.31097100000000	0.00000000000000	0.14057000000000	0.00000000000000	0.00000000000000	0.00000000000000	0.00000000000000	0.00000000000000	0.00000000000000	0.00000000000000	29.01165900000000	0.00000000000000	0.00000000000000	0.00000000000000	0.00000000000000	
11.53829000000000	-2.95467600000000	688.93352100000004	46.28189400000000	0.30941800000000	0.00000000000000	0.14045300000000	0.00000000000000	0.00000000000000	0.00000000000000	0.00000000000000	0.00000000000000	0.00000000000000	0.00000000000000	29.01255200000000	0.00000000000000	0.00000000000000	0.00000000000000	0.00000000000000	
11.53995400000000	-3.40740400000000	689.92510900000002	46.20245500000000	0.30789000000000	0.00000000000000	0.14033200000000	0.00000000000000	0.00000000000000	0.00000000000000	0.00000000000000	0.00000000000000	0.00000000000000	0.00000000000000	29.01558000000000	0.00000000000000	0.00000000000000	0.00000000000000	0.00000000000000	
11.54161900000000	-3.86367400000000	690.97268999999994	46.12088500000000	0.30639000000000	0.00000000000000	0.14020500000000	0.00000000000000	0.00000000000000	0.00000000000000	0.00000000000000	0.00000000000000	0.00000000000000	0.00000000000000	29.02072900000000	0.00000000000000	0.00000000000000	0.00000000000000	0.00000000000000	
11.54328700000000	-4.32349300000000	692.07494399999996	46.03721500000000	0.30491800000000	0.00000000000000	0.14007400000000	0.00000000000000	0.00000000000000	0.00000000000000	0.00000000000000	0.00000000000000	0.00000000000000	0.00000000000000	29.02799800000000	0.00000000000000	0.00000000000000	0.00000000000000	0.00000000000000	
11.54495700000000	-4.78685500000000	693.23058600000002	45.95152000000000	0.30347600000000	0.00000000000000	0.13993900000000	0.00000000000000	0.00000000000000	0.00000000000000	0.00000000000000	0.00000000000000	0.00000000000000	0.00000000000000	29.03740100000000	0.00000000000000	0.00000000000000	0.00000000000000	0.00000000000000	
11.54662100000000	-5.25373800000000	694.43837099999996	45.86391900000000	0.30206500000000	0.00000000000000	0.13980000000000	0.00000000000000	0.00000000000000	0.00000000000000	0.00000000000000	0.00000000000000	0.00000000000000	0.00000000000000	29.04896300000000	0.00000000000000	0.00000000000000	0.00000000000000	0.00000000000000	
11.54829300000000	-5.72410200000000	695.69709699999999	45.77457200000000	0.30068600000000	0.00000000000000	0.13965600000000	0.00000000000000	0.00000000000000	0.00000000000000	0.00000000000000	0.00000000000000	0.00000000000000	0.00000000000000	29.06272500000000	0.00000000000000	0.00000000000000	0.00000000000000	0.00000000000000	
11.54995700000000	-6.19789500000000	697.00559899999996	45.68367900000000	0.29934000000000	0.00000000000000	0.13950800000000	0.00000000000000	0.00000000000000	0.00000000000000	0.00000000000000	0.00000000000000	0.00000000000000	0.00000000000000	29.07873700000000	0.00000000000000	0.00000000000000	0.00000000000000	0.00000000000000	
11.55162300000000	-6.67504800000000	698.36275499999999	45.59148600000000	0.29802700000000	0.00000000000000	0.13935700000000	0.00000000000000	0.00000000000000	0.00000000000000	0.00000000000000	0.00000000000000	0.00000000000000	0.00000000000000	29.09706300000000	0.00000000000000	0.00000000000000	0.00000000000000	0.00000000000000	
11.55328600000000	-7.15548000000000	699.76748399999997	45.49827500000000	0.29674800000000	0.00000000000000	0.13920200000000	0.00000000000000	0.00000000000000	0.00000000000000	0.00000000000000	0.00000000000000	0.00000000000000	0.00000000000000	29.11777900000000	0.00000000000000	0.00000000000000	0.00000000000000	0.00000000000000	
11.55495500000000	-7.63909500000000	701.21874100000002	45.40436700000000	0.29550400000000	0.00000000000000	0.13904300000000	0.00000000000000	0.00000000000000	0.00000000000000	0.00000000000000	0.00000000000000	0.00000000000000	0.00000000000000	29.14097200000000	0.00000000000000	0.00000000000000	0.00000000000000	0.00000000000000	
11.55662200000000	-8.12578800000000	702.71552499999996	45.31012400000000	0.29429600000000	0.00000000000000	0.13888100000000	0.00000000000000	0.00000000000000	0.00000000000000	0.00000000000000	0.00000000000000	0.00000000000000	0.00000000000000	29.16673900000000	0.00000000000000	0.00000000000000	0.00000000000000	0.00000000000000	
11.55828800000000	-8.61543800000000	704.25686599999995	45.21594000000000	0.29312300000000	0.00000000000000	0.13871600000000	0.00000000000000	0.00000000000000	0.00000000000000	0.00000000000000	0.00000000000000	0.00000000000000	0.00000000000000	29.19518800000000	0.00000000000000	0.00000000000000	0.00000000000000	0.00000000000000	
11.55995300000000	-9.10791600000000	705.84182999999996	45.12224400000000	0.29198600000000	0.00000000000000	0.13854800000000	0.00000000000000	0.00000000000000	0.00000000000000	0.00000000000000	0.00000000000000	0.00000000000000	0.00000000000000	29.22643500000000	0.00000000000000	0.00000000000000	0.00000000000000	0.00000000000000	
11.56161900000000	-9.60308100000000	707.46951600000000	45.02950000000000	0.29088600000000	0.00000000000000	0.13837800000000	0.00000000000000	0.00000000000000	0.00000000000000	0.00000000000000	0.00000000000000	0.00000000000000	0.00000000000000	29.26060500000000	0.00000000000000	0.00000000000000	0.00000000000000	0.00000000000000	
11.56328600000000	-10.10078500000000	709.13905000000000	44.93819900000000	0.28982300000000	0.00000000000000	0.13820500000000	0.00000000000000	0.00000000000000	0.00000000000000	0.00000000000000	0.00000000000000	0.00000000000000	0.00000000000000	29.29783100000000	0.00000000000000	0.00000000000000	0.00000000000000	0.00000000000000	
11.56495600000000	-10.60086800000000	710.84958099999994	44.84886000000000	0.28879600000000	0.00000000000000	0.13803100000000	0.00000000000000	0.00000000000000	0.00000000000000	0.00000000000000	0.00000000000000	0.00000000000000	0.00000000000000	29.33825300000000	0.00000000000000	0.00000000000000	0.00000000000000	0.00000000000000	
11.56661900000000	-11.10316400000000	712.60028199999999	44.76202900000000	0.28780600000000	0.00000000000000	0.13785400000000	0.00000000000000	0.00000000000000	0.00000000000000	0.00000000000000	0.00000000000000	0.00000000000000	0.00000000000000	29.38201700000000	0.00000000000000	0.00000000000000	0.00000000000000	0.00000000000000	
11.56829100000000	-11.60749800000000	714.39034200000003	44.67827400000000	0.28685300000000	0.00000000000000	0.13767600000000	0.00000000000000	0.00000000000000	0.00000000000000	0.00000000000000	0.00000000000000	0.00000000000000	0.00000000000000	29.42927400000000	0.00000000000000	0.00000000000000	0.00000000000000	0.00000000000000	
11.56995500000000	-12.11369000000000	716.21896300000003	44.59818300000000	0.28593600000000	0.00000000000000	0.13749700000000	0.00000000000000	0.00000000000000	0.00000000000000	0.00000000000000	0.00000000000000	0.00000000000000	0.00000000000000	29.48017900000000	0.00000000000000	0.00000000000000	0.00000000000000	0.00000000000000	
11.57161900000000	-12.62155200000000	718.08535500000005	44.52236300000000	0.28505500000000	0.00000000000000	0.13731600000000	0.00000000000000	0.00000000000000	0.00000000000000	0.00000000000000	0.00000000000000	0.00000000000000	0.00000000000000	29.53488900000000	0.00000000000000	0.00000000000000	0.00000000000000	0.00000000000000	
11.57329300000000	-13.13089200000000	719.98873100000003	44.45143300000000	0.28421000000000	0.00000000000000	0.13713500000000	0.00000000000000	0.00000000000000	0.00000000000000	0.00000000000000	0.00000000000000	0.00000000000000	0.00000000000000	29.59356400000000	0.00000000000000	0.00000000000000	0.00000000000000	0.00000000000000	
11.57495600000000	-13.64151100000000	721.92830300000003	44.38602600000000	0.28340100000000	0.00000000000000	0.13695400000000	0.00000000000000	0.00000000000000	0.00000000000000	0.00000000000000	0.00000000000000	0.00000000000000	0.00000000000000	29.65636500000000	0.00000000000000	0.00000000000000	0.00000000000000	0.00000000000000	
11.57662400000000	-14.15320800000000	723.90327700000000	44.32678100000000	0.28262700000000	0.00000000000000	0.13677200000000	0.00000000000000	0.00000000000000	0.00000000000000	0.00000000000000	0.00000000000000	0.00000000000000	0.00000000000000	29.72345200000000	0.00000000000000	0.00000000000000	0.00000000000000	0.00000000000000	
11.57828600000000	-14.66577500000000	725.91284700000006	44.27434700000000	0.28188600000000	0.00000000000000	0.13659100000000	0.00000000000000	0.00000000000000	0.00000000000000	0.00000000000000	0.00000000000000	0.00000000000000	0.00000000000000	29.79498300000000	0.00000000000000	0.00000000000000	0.00000000000000	0.00000000000000	
11.57996500000000	-15.17900200000000	727.95618899999999	44.22937000000000	0.28118000000000	0.00000000000000	0.13640900000000	0.00000000000000	0.00000000000000	0.00000000000000	0.00000000000000	0.00000000000000	0.00000000000000	0.00000000000000	29.87111400000000	0.00000000000000	0.00000000000000	0.00000000000000	0.00000000000000	
